<mxfile host="app.diagrams.net" modified="2023-09-19T10:51:30.454Z" agent="Mozilla/5.0 (Windows NT 10.0; Win64; x64) AppleWebKit/537.36 (KHTML, like Gecko) Chrome/116.0.0.0 Safari/537.36" etag="YL9ZHQH8b8CpSV6Ks-y2" version="21.7.2" type="google">
  <diagram name="Page-1" id="c4acf3e9-155e-7222-9cf6-157b1a14988f">
    <mxGraphModel grid="1" page="1" gridSize="10" guides="1" tooltips="1" connect="1" arrows="1" fold="1" pageScale="1" pageWidth="850" pageHeight="1100" background="none" math="0" shadow="0">
      <root>
        <mxCell id="0" />
        <mxCell id="1" parent="0" />
        <mxCell id="mOzJsL0hazuHokyy7WO5-23" style="edgeStyle=orthogonalEdgeStyle;rounded=0;orthogonalLoop=1;jettySize=auto;html=1;exitX=0.5;exitY=0;exitDx=0;exitDy=0;entryX=0.545;entryY=1;entryDx=0;entryDy=0;entryPerimeter=0;endArrow=none;endFill=0;dashed=1;" edge="1" parent="1" source="SDnSSGppthDiUH64vAvd-1" target="SDnSSGppthDiUH64vAvd-9">
          <mxGeometry relative="1" as="geometry" />
        </mxCell>
        <mxCell id="SDnSSGppthDiUH64vAvd-1" value="SimpleHandPoseControllsDescriptor" style="swimlane;fontStyle=1;align=center;verticalAlign=top;childLayout=stackLayout;horizontal=1;startSize=26;horizontalStack=0;resizeParent=1;resizeParentMax=0;resizeLast=0;collapsible=1;marginBottom=0;fillColor=#CCE5FF;" vertex="1" parent="1">
          <mxGeometry x="330" y="410" width="300" height="86" as="geometry" />
        </mxCell>
        <mxCell id="SDnSSGppthDiUH64vAvd-2" value="+ field: type" style="text;strokeColor=none;fillColor=none;align=left;verticalAlign=top;spacingLeft=4;spacingRight=4;overflow=hidden;rotatable=0;points=[[0,0.5],[1,0.5]];portConstraint=eastwest;" vertex="1" parent="SDnSSGppthDiUH64vAvd-1">
          <mxGeometry y="26" width="300" height="26" as="geometry" />
        </mxCell>
        <mxCell id="SDnSSGppthDiUH64vAvd-3" value="" style="line;strokeWidth=1;fillColor=none;align=left;verticalAlign=middle;spacingTop=-1;spacingLeft=3;spacingRight=3;rotatable=0;labelPosition=right;points=[];portConstraint=eastwest;" vertex="1" parent="SDnSSGppthDiUH64vAvd-1">
          <mxGeometry y="52" width="300" height="8" as="geometry" />
        </mxCell>
        <mxCell id="SDnSSGppthDiUH64vAvd-4" value="+ method(type): type" style="text;strokeColor=none;fillColor=none;align=left;verticalAlign=top;spacingLeft=4;spacingRight=4;overflow=hidden;rotatable=0;points=[[0,0.5],[1,0.5]];portConstraint=eastwest;" vertex="1" parent="SDnSSGppthDiUH64vAvd-1">
          <mxGeometry y="60" width="300" height="26" as="geometry" />
        </mxCell>
        <mxCell id="mOzJsL0hazuHokyy7WO5-32" style="rounded=0;orthogonalLoop=1;jettySize=auto;html=1;exitX=0.5;exitY=0;exitDx=0;exitDy=0;entryX=0.519;entryY=1.038;entryDx=0;entryDy=0;entryPerimeter=0;endArrow=block;endFill=0;endSize=10;" edge="1" parent="1" source="SDnSSGppthDiUH64vAvd-6" target="mOzJsL0hazuHokyy7WO5-31">
          <mxGeometry relative="1" as="geometry" />
        </mxCell>
        <mxCell id="SDnSSGppthDiUH64vAvd-6" value="SightVisor" style="swimlane;fontStyle=1;align=center;verticalAlign=top;childLayout=stackLayout;horizontal=1;startSize=26;horizontalStack=0;resizeParent=1;resizeParentMax=0;resizeLast=0;collapsible=1;marginBottom=0;strokeColor=#000000;fillColor=#FFE6CC;" vertex="1" parent="1">
          <mxGeometry x="360" y="180" width="220" height="160" as="geometry" />
        </mxCell>
        <mxCell id="SDnSSGppthDiUH64vAvd-7" value="+ isSightVisorUp: bool&#xa;- visorUpPose: Transofrm&#xa;- visorDownPose: Transofrm&#xa;- sightVisorModel: GameObject&#xa;- visorInterface: GameObject" style="text;strokeColor=none;fillColor=none;align=left;verticalAlign=top;spacingLeft=4;spacingRight=4;overflow=hidden;rotatable=0;points=[[0,0.5],[1,0.5]];portConstraint=eastwest;" vertex="1" parent="SDnSSGppthDiUH64vAvd-6">
          <mxGeometry y="26" width="220" height="84" as="geometry" />
        </mxCell>
        <mxCell id="SDnSSGppthDiUH64vAvd-8" value="" style="line;strokeWidth=1;fillColor=none;align=left;verticalAlign=middle;spacingTop=-1;spacingLeft=3;spacingRight=3;rotatable=0;labelPosition=right;points=[];portConstraint=eastwest;" vertex="1" parent="SDnSSGppthDiUH64vAvd-6">
          <mxGeometry y="110" width="220" height="8" as="geometry" />
        </mxCell>
        <mxCell id="SDnSSGppthDiUH64vAvd-9" value="+ PushVisor(GameInteractor): void&#xa;- ToggleVisorInterface(): void" style="text;strokeColor=none;fillColor=none;align=left;verticalAlign=top;spacingLeft=4;spacingRight=4;overflow=hidden;rotatable=0;points=[[0,0.5],[1,0.5]];portConstraint=eastwest;" vertex="1" parent="SDnSSGppthDiUH64vAvd-6">
          <mxGeometry y="118" width="220" height="42" as="geometry" />
        </mxCell>
        <mxCell id="SDnSSGppthDiUH64vAvd-14" value="ToggleSelectionMode" style="swimlane;fontStyle=1;align=center;verticalAlign=top;childLayout=stackLayout;horizontal=1;startSize=26;horizontalStack=0;resizeParent=1;resizeParentMax=0;resizeLast=0;collapsible=1;marginBottom=0;fillColor=#E3D3F5;" vertex="1" parent="1">
          <mxGeometry x="700" y="208" width="220" height="86" as="geometry" />
        </mxCell>
        <mxCell id="SDnSSGppthDiUH64vAvd-15" value="+ field: type" style="text;strokeColor=none;fillColor=none;align=left;verticalAlign=top;spacingLeft=4;spacingRight=4;overflow=hidden;rotatable=0;points=[[0,0.5],[1,0.5]];portConstraint=eastwest;" vertex="1" parent="SDnSSGppthDiUH64vAvd-14">
          <mxGeometry y="26" width="220" height="26" as="geometry" />
        </mxCell>
        <mxCell id="SDnSSGppthDiUH64vAvd-16" value="" style="line;strokeWidth=1;fillColor=none;align=left;verticalAlign=middle;spacingTop=-1;spacingLeft=3;spacingRight=3;rotatable=0;labelPosition=right;points=[];portConstraint=eastwest;" vertex="1" parent="SDnSSGppthDiUH64vAvd-14">
          <mxGeometry y="52" width="220" height="8" as="geometry" />
        </mxCell>
        <mxCell id="SDnSSGppthDiUH64vAvd-17" value="+ method(type): type" style="text;strokeColor=none;fillColor=none;align=left;verticalAlign=top;spacingLeft=4;spacingRight=4;overflow=hidden;rotatable=0;points=[[0,0.5],[1,0.5]];portConstraint=eastwest;" vertex="1" parent="SDnSSGppthDiUH64vAvd-14">
          <mxGeometry y="60" width="220" height="26" as="geometry" />
        </mxCell>
        <mxCell id="SDnSSGppthDiUH64vAvd-18" style="edgeStyle=orthogonalEdgeStyle;rounded=0;orthogonalLoop=1;jettySize=auto;html=1;endArrow=none;endFill=0;dashed=1;" edge="1" parent="1" source="SDnSSGppthDiUH64vAvd-7" target="SDnSSGppthDiUH64vAvd-15">
          <mxGeometry relative="1" as="geometry" />
        </mxCell>
        <mxCell id="SDnSSGppthDiUH64vAvd-23" style="edgeStyle=orthogonalEdgeStyle;rounded=0;orthogonalLoop=1;jettySize=auto;html=1;endArrow=none;endFill=0;exitX=1;exitY=0.5;exitDx=0;exitDy=0;dashed=1;" edge="1" parent="1" source="SDnSSGppthDiUH64vAvd-20" target="SDnSSGppthDiUH64vAvd-7">
          <mxGeometry relative="1" as="geometry" />
        </mxCell>
        <mxCell id="SDnSSGppthDiUH64vAvd-19" value="GrippingDevice" style="swimlane;fontStyle=1;align=center;verticalAlign=top;childLayout=stackLayout;horizontal=1;startSize=26;horizontalStack=0;resizeParent=1;resizeParentMax=0;resizeLast=0;collapsible=1;marginBottom=0;fillColor=#FFE6CC;" vertex="1" parent="1">
          <mxGeometry x="40" y="210" width="160" height="84" as="geometry" />
        </mxCell>
        <mxCell id="SDnSSGppthDiUH64vAvd-20" value="- HP: int" style="text;strokeColor=none;fillColor=none;align=left;verticalAlign=top;spacingLeft=4;spacingRight=4;overflow=hidden;rotatable=0;points=[[0,0.5],[1,0.5]];portConstraint=eastwest;" vertex="1" parent="SDnSSGppthDiUH64vAvd-19">
          <mxGeometry y="26" width="160" height="24" as="geometry" />
        </mxCell>
        <mxCell id="SDnSSGppthDiUH64vAvd-21" value="" style="line;strokeWidth=1;fillColor=none;align=left;verticalAlign=middle;spacingTop=-1;spacingLeft=3;spacingRight=3;rotatable=0;labelPosition=right;points=[];portConstraint=eastwest;" vertex="1" parent="SDnSSGppthDiUH64vAvd-19">
          <mxGeometry y="50" width="160" height="8" as="geometry" />
        </mxCell>
        <mxCell id="SDnSSGppthDiUH64vAvd-22" value="+ TakeDamage(int): void" style="text;strokeColor=none;fillColor=none;align=left;verticalAlign=top;spacingLeft=4;spacingRight=4;overflow=hidden;rotatable=0;points=[[0,0.5],[1,0.5]];portConstraint=eastwest;" vertex="1" parent="SDnSSGppthDiUH64vAvd-19">
          <mxGeometry y="58" width="160" height="26" as="geometry" />
        </mxCell>
        <mxCell id="mOzJsL0hazuHokyy7WO5-1" value="Pullable" style="swimlane;fontStyle=1;align=center;verticalAlign=top;childLayout=stackLayout;horizontal=1;startSize=26;horizontalStack=0;resizeParent=1;resizeParentMax=0;resizeLast=0;collapsible=1;marginBottom=0;strokeColor=#000000;fillColor=#FFE6CC;" vertex="1" parent="1">
          <mxGeometry x="350" y="-240" width="230" height="150" as="geometry" />
        </mxCell>
        <mxCell id="mOzJsL0hazuHokyy7WO5-2" value="+ OnTake: Action&lt;GameInteractor&gt;" style="text;strokeColor=none;fillColor=none;align=left;verticalAlign=top;spacingLeft=4;spacingRight=4;overflow=hidden;rotatable=0;points=[[0,0.5],[1,0.5]];portConstraint=eastwest;" vertex="1" parent="mOzJsL0hazuHokyy7WO5-1">
          <mxGeometry y="26" width="230" height="44" as="geometry" />
        </mxCell>
        <mxCell id="mOzJsL0hazuHokyy7WO5-3" value="" style="line;strokeWidth=1;fillColor=none;align=left;verticalAlign=middle;spacingTop=-1;spacingLeft=3;spacingRight=3;rotatable=0;labelPosition=right;points=[];portConstraint=eastwest;" vertex="1" parent="mOzJsL0hazuHokyy7WO5-1">
          <mxGeometry y="70" width="230" height="8" as="geometry" />
        </mxCell>
        <mxCell id="mOzJsL0hazuHokyy7WO5-4" value="+ Take(GameInteractor): void&#xa;+ Drop(GameInteractor): void&#xa;+ Pull(GameInteractor, float): void&#xa;+ Push(GameInteractor, float): void" style="text;strokeColor=none;fillColor=none;align=left;verticalAlign=top;spacingLeft=4;spacingRight=4;overflow=hidden;rotatable=0;points=[[0,0.5],[1,0.5]];portConstraint=eastwest;" vertex="1" parent="mOzJsL0hazuHokyy7WO5-1">
          <mxGeometry y="78" width="230" height="72" as="geometry" />
        </mxCell>
        <mxCell id="mOzJsL0hazuHokyy7WO5-5" value="GoldNugget" style="swimlane;fontStyle=1;align=center;verticalAlign=top;childLayout=stackLayout;horizontal=1;startSize=26;horizontalStack=0;resizeParent=1;resizeParentMax=0;resizeLast=0;collapsible=1;marginBottom=0;fillColor=#FFE6CC;" vertex="1" parent="1">
          <mxGeometry x="235" y="-410" width="190" height="90" as="geometry" />
        </mxCell>
        <mxCell id="mOzJsL0hazuHokyy7WO5-6" value="+ value: int" style="text;strokeColor=none;fillColor=none;align=left;verticalAlign=top;spacingLeft=4;spacingRight=4;overflow=hidden;rotatable=0;points=[[0,0.5],[1,0.5]];portConstraint=eastwest;" vertex="1" parent="mOzJsL0hazuHokyy7WO5-5">
          <mxGeometry y="26" width="190" height="26" as="geometry" />
        </mxCell>
        <mxCell id="mOzJsL0hazuHokyy7WO5-7" value="" style="line;strokeWidth=1;fillColor=none;align=left;verticalAlign=middle;spacingTop=-1;spacingLeft=3;spacingRight=3;rotatable=0;labelPosition=right;points=[];portConstraint=eastwest;" vertex="1" parent="mOzJsL0hazuHokyy7WO5-5">
          <mxGeometry y="52" width="190" height="38" as="geometry" />
        </mxCell>
        <mxCell id="mOzJsL0hazuHokyy7WO5-9" value="LavaDrop" style="swimlane;fontStyle=1;align=center;verticalAlign=top;childLayout=stackLayout;horizontal=1;startSize=26;horizontalStack=0;resizeParent=1;resizeParentMax=0;resizeLast=0;collapsible=1;marginBottom=0;fillColor=#FFE6CC;" vertex="1" parent="1">
          <mxGeometry x="480" y="-400" width="270" height="80" as="geometry" />
        </mxCell>
        <mxCell id="mOzJsL0hazuHokyy7WO5-11" value="" style="line;strokeWidth=1;fillColor=none;align=left;verticalAlign=middle;spacingTop=-1;spacingLeft=3;spacingRight=3;rotatable=0;labelPosition=right;points=[];portConstraint=eastwest;" vertex="1" parent="mOzJsL0hazuHokyy7WO5-9">
          <mxGeometry y="26" width="270" height="8" as="geometry" />
        </mxCell>
        <mxCell id="mOzJsL0hazuHokyy7WO5-12" value="+ OnTake(GameInteractor): void&#xa;" style="text;strokeColor=none;fillColor=none;align=left;verticalAlign=top;spacingLeft=4;spacingRight=4;overflow=hidden;rotatable=0;points=[[0,0.5],[1,0.5]];portConstraint=eastwest;" vertex="1" parent="mOzJsL0hazuHokyy7WO5-9">
          <mxGeometry y="34" width="270" height="46" as="geometry" />
        </mxCell>
        <mxCell id="mOzJsL0hazuHokyy7WO5-19" style="edgeStyle=orthogonalEdgeStyle;rounded=0;orthogonalLoop=1;jettySize=auto;html=1;endArrow=none;endFill=0;dashed=1;" edge="1" parent="1" source="mOzJsL0hazuHokyy7WO5-14" target="mOzJsL0hazuHokyy7WO5-9">
          <mxGeometry relative="1" as="geometry" />
        </mxCell>
        <mxCell id="mOzJsL0hazuHokyy7WO5-14" value="В методе OnTake наносится урон девайсу захвата. Если GameInteractor содержит GrippingDevice&amp;nbsp;" style="rounded=0;whiteSpace=wrap;html=1;strokeWidth=0;fillColor=#fff2cc;strokeColor=#d6b656;" vertex="1" parent="1">
          <mxGeometry x="830" y="-450" width="180" height="180" as="geometry" />
        </mxCell>
        <mxCell id="mOzJsL0hazuHokyy7WO5-22" style="edgeStyle=orthogonalEdgeStyle;rounded=0;orthogonalLoop=1;jettySize=auto;html=1;entryX=0.545;entryY=1;entryDx=0;entryDy=0;entryPerimeter=0;endArrow=none;endFill=0;dashed=1;" edge="1" parent="1" source="mOzJsL0hazuHokyy7WO5-15" target="SDnSSGppthDiUH64vAvd-9">
          <mxGeometry relative="1" as="geometry" />
        </mxCell>
        <mxCell id="mOzJsL0hazuHokyy7WO5-15" value="Score" style="swimlane;fontStyle=1;align=center;verticalAlign=top;childLayout=stackLayout;horizontal=1;startSize=26;horizontalStack=0;resizeParent=1;resizeParentMax=0;resizeLast=0;collapsible=1;marginBottom=0;strokeWidth=1;fillColor=#FFE6CC;" vertex="1" parent="1">
          <mxGeometry x="5" y="410" width="230" height="86" as="geometry" />
        </mxCell>
        <mxCell id="mOzJsL0hazuHokyy7WO5-16" value="+ score: int" style="text;strokeColor=none;fillColor=none;align=left;verticalAlign=top;spacingLeft=4;spacingRight=4;overflow=hidden;rotatable=0;points=[[0,0.5],[1,0.5]];portConstraint=eastwest;" vertex="1" parent="mOzJsL0hazuHokyy7WO5-15">
          <mxGeometry y="26" width="230" height="26" as="geometry" />
        </mxCell>
        <mxCell id="mOzJsL0hazuHokyy7WO5-17" value="" style="line;strokeWidth=1;fillColor=none;align=left;verticalAlign=middle;spacingTop=-1;spacingLeft=3;spacingRight=3;rotatable=0;labelPosition=right;points=[];portConstraint=eastwest;" vertex="1" parent="mOzJsL0hazuHokyy7WO5-15">
          <mxGeometry y="52" width="230" height="8" as="geometry" />
        </mxCell>
        <mxCell id="mOzJsL0hazuHokyy7WO5-18" value="+ OnTriggerEnter(Collider col): void" style="text;strokeColor=none;fillColor=none;align=left;verticalAlign=top;spacingLeft=4;spacingRight=4;overflow=hidden;rotatable=0;points=[[0,0.5],[1,0.5]];portConstraint=eastwest;" vertex="1" parent="mOzJsL0hazuHokyy7WO5-15">
          <mxGeometry y="60" width="230" height="26" as="geometry" />
        </mxCell>
        <mxCell id="mOzJsL0hazuHokyy7WO5-20" value="" style="endArrow=none;html=1;rounded=0;edgeStyle=orthogonalEdgeStyle;exitX=0.5;exitY=0;exitDx=0;exitDy=0;entryX=0.5;entryY=1;entryDx=0;entryDy=0;dashed=1;" edge="1" parent="1" source="mOzJsL0hazuHokyy7WO5-1" target="mOzJsL0hazuHokyy7WO5-5">
          <mxGeometry width="50" height="50" relative="1" as="geometry">
            <mxPoint x="350" y="-190" as="sourcePoint" />
            <mxPoint x="370" y="-330" as="targetPoint" />
          </mxGeometry>
        </mxCell>
        <mxCell id="mOzJsL0hazuHokyy7WO5-21" value="" style="endArrow=none;html=1;rounded=0;edgeStyle=orthogonalEdgeStyle;exitX=0.5;exitY=0;exitDx=0;exitDy=0;entryX=0.507;entryY=1;entryDx=0;entryDy=0;entryPerimeter=0;dashed=1;" edge="1" parent="1" source="mOzJsL0hazuHokyy7WO5-1" target="mOzJsL0hazuHokyy7WO5-12">
          <mxGeometry width="50" height="50" relative="1" as="geometry">
            <mxPoint x="475" y="-230" as="sourcePoint" />
            <mxPoint x="625" y="-336" as="targetPoint" />
          </mxGeometry>
        </mxCell>
        <mxCell id="mOzJsL0hazuHokyy7WO5-24" value="GameInteractor" style="swimlane;fontStyle=1;align=center;verticalAlign=top;childLayout=stackLayout;horizontal=1;startSize=26;horizontalStack=0;resizeParent=1;resizeParentMax=0;resizeLast=0;collapsible=1;marginBottom=0;strokeWidth=1;fillColor=#FFCCCC;" vertex="1" parent="1">
          <mxGeometry x="50" y="-30" width="160" height="86" as="geometry" />
        </mxCell>
        <mxCell id="mOzJsL0hazuHokyy7WO5-25" value="+ field: type" style="text;strokeColor=none;fillColor=none;align=left;verticalAlign=top;spacingLeft=4;spacingRight=4;overflow=hidden;rotatable=0;points=[[0,0.5],[1,0.5]];portConstraint=eastwest;" vertex="1" parent="mOzJsL0hazuHokyy7WO5-24">
          <mxGeometry y="26" width="160" height="26" as="geometry" />
        </mxCell>
        <mxCell id="mOzJsL0hazuHokyy7WO5-26" value="" style="line;strokeWidth=1;fillColor=none;align=left;verticalAlign=middle;spacingTop=-1;spacingLeft=3;spacingRight=3;rotatable=0;labelPosition=right;points=[];portConstraint=eastwest;" vertex="1" parent="mOzJsL0hazuHokyy7WO5-24">
          <mxGeometry y="52" width="160" height="8" as="geometry" />
        </mxCell>
        <mxCell id="mOzJsL0hazuHokyy7WO5-27" value="+ method(type): type" style="text;strokeColor=none;fillColor=none;align=left;verticalAlign=top;spacingLeft=4;spacingRight=4;overflow=hidden;rotatable=0;points=[[0,0.5],[1,0.5]];portConstraint=eastwest;" vertex="1" parent="mOzJsL0hazuHokyy7WO5-24">
          <mxGeometry y="60" width="160" height="26" as="geometry" />
        </mxCell>
        <mxCell id="mOzJsL0hazuHokyy7WO5-28" value="GameInteractable" style="swimlane;fontStyle=1;align=center;verticalAlign=top;childLayout=stackLayout;horizontal=1;startSize=26;horizontalStack=0;resizeParent=1;resizeParentMax=0;resizeLast=0;collapsible=1;marginBottom=0;strokeWidth=1;fillColor=#FFCCCC;" vertex="1" parent="1">
          <mxGeometry x="385" y="-30" width="160" height="86" as="geometry" />
        </mxCell>
        <mxCell id="mOzJsL0hazuHokyy7WO5-29" value="+ name: int" style="text;strokeColor=none;fillColor=none;align=left;verticalAlign=top;spacingLeft=4;spacingRight=4;overflow=hidden;rotatable=0;points=[[0,0.5],[1,0.5]];portConstraint=eastwest;" vertex="1" parent="mOzJsL0hazuHokyy7WO5-28">
          <mxGeometry y="26" width="160" height="26" as="geometry" />
        </mxCell>
        <mxCell id="mOzJsL0hazuHokyy7WO5-30" value="" style="line;strokeWidth=1;fillColor=none;align=left;verticalAlign=middle;spacingTop=-1;spacingLeft=3;spacingRight=3;rotatable=0;labelPosition=right;points=[];portConstraint=eastwest;" vertex="1" parent="mOzJsL0hazuHokyy7WO5-28">
          <mxGeometry y="52" width="160" height="8" as="geometry" />
        </mxCell>
        <mxCell id="mOzJsL0hazuHokyy7WO5-31" value="+ methodName(type): " style="text;strokeColor=none;fillColor=none;align=left;verticalAlign=top;spacingLeft=4;spacingRight=4;overflow=hidden;rotatable=0;points=[[0,0.5],[1,0.5]];portConstraint=eastwest;" vertex="1" parent="mOzJsL0hazuHokyy7WO5-28">
          <mxGeometry y="60" width="160" height="26" as="geometry" />
        </mxCell>
        <mxCell id="mOzJsL0hazuHokyy7WO5-33" style="edgeStyle=orthogonalEdgeStyle;rounded=0;orthogonalLoop=1;jettySize=auto;html=1;exitX=0.5;exitY=1;exitDx=0;exitDy=0;entryX=0.5;entryY=0;entryDx=0;entryDy=0;endArrow=block;endFill=0;endSize=10;exitPerimeter=0;" edge="1" parent="1" source="mOzJsL0hazuHokyy7WO5-4" target="mOzJsL0hazuHokyy7WO5-28">
          <mxGeometry relative="1" as="geometry">
            <mxPoint x="480" y="190" as="sourcePoint" />
            <mxPoint x="478.03999999999996" y="66.98800000000006" as="targetPoint" />
          </mxGeometry>
        </mxCell>
        <mxCell id="mOzJsL0hazuHokyy7WO5-34" style="rounded=0;orthogonalLoop=1;jettySize=auto;html=1;exitX=0.5;exitY=0;exitDx=0;exitDy=0;endArrow=diamondThin;endFill=0;endSize=10;entryX=0.45;entryY=1.038;entryDx=0;entryDy=0;entryPerimeter=0;" edge="1" parent="1" source="SDnSSGppthDiUH64vAvd-19" target="mOzJsL0hazuHokyy7WO5-27">
          <mxGeometry relative="1" as="geometry">
            <mxPoint x="480" y="190" as="sourcePoint" />
            <mxPoint x="110" y="58" as="targetPoint" />
          </mxGeometry>
        </mxCell>
        <mxCell id="mOzJsL0hazuHokyy7WO5-36" style="edgeStyle=orthogonalEdgeStyle;rounded=0;orthogonalLoop=1;jettySize=auto;html=1;entryX=0;entryY=0.5;entryDx=0;entryDy=0;endArrow=none;endFill=0;endSize=10;" edge="1" parent="1" source="mOzJsL0hazuHokyy7WO5-35" target="SDnSSGppthDiUH64vAvd-20">
          <mxGeometry relative="1" as="geometry" />
        </mxCell>
        <mxCell id="mOzJsL0hazuHokyy7WO5-35" value="*Заметка по философии*&lt;br&gt;*Можно не читать*&lt;br&gt;В данном случае GrippingDevice является интерактором, а если бы это был берушийся в руки объект, тот GrippingDevice был бы GameInteractable, но так как в данном случае наш захват прикручен к руке намертво =&amp;gt; Он как бы заменяет собой стандартного геймИнтерактора - руку. Работа захватом - основа геймплея.&lt;br&gt;Возможно лучше сделать это иначе - сделав его гейминтерактором, но тогда придётся заново создавать всю мощь селектинг системы внутри чисто игровой части." style="rounded=0;whiteSpace=wrap;html=1;strokeWidth=0;fillColor=#fff2cc;strokeColor=#d6b656;" vertex="1" parent="1">
          <mxGeometry x="-320" y="133" width="230" height="230" as="geometry" />
        </mxCell>
        <mxCell id="mOzJsL0hazuHokyy7WO5-37" style="edgeStyle=orthogonalEdgeStyle;rounded=0;orthogonalLoop=1;jettySize=auto;html=1;entryX=0;entryY=0.5;entryDx=0;entryDy=0;endArrow=none;endFill=0;endSize=10;" edge="1" parent="1" source="mOzJsL0hazuHokyy7WO5-25" target="mOzJsL0hazuHokyy7WO5-29">
          <mxGeometry relative="1" as="geometry" />
        </mxCell>
        <mxCell id="mOzJsL0hazuHokyy7WO5-38" value="MLHandInputProvider +" style="swimlane;fontStyle=1;align=center;verticalAlign=top;childLayout=stackLayout;horizontal=1;startSize=26;horizontalStack=0;resizeParent=1;resizeParentMax=0;resizeLast=0;collapsible=1;marginBottom=0;strokeWidth=2;swimlaneFillColor=#FFFFFF;fillColor=#D9F0FF;perimeterSpacing=0;strokeColor=#D1044F;" vertex="1" parent="1">
          <mxGeometry x="-300" y="-255" width="550" height="160" as="geometry">
            <mxRectangle x="-1210" y="2030" width="100" height="26" as="alternateBounds" />
          </mxGeometry>
        </mxCell>
        <mxCell id="mOzJsL0hazuHokyy7WO5-39" value="//" style="text;strokeColor=none;align=left;verticalAlign=top;spacingLeft=4;spacingRight=4;overflow=hidden;rotatable=0;points=[[0,0.5],[1,0.5]];portConstraint=eastwest;" vertex="1" parent="mOzJsL0hazuHokyy7WO5-38">
          <mxGeometry y="26" width="550" height="24" as="geometry" />
        </mxCell>
        <mxCell id="mOzJsL0hazuHokyy7WO5-40" value="" style="line;strokeWidth=1;fillColor=none;align=left;verticalAlign=middle;spacingTop=-1;spacingLeft=3;spacingRight=3;rotatable=0;labelPosition=right;points=[];portConstraint=eastwest;" vertex="1" parent="mOzJsL0hazuHokyy7WO5-38">
          <mxGeometry y="50" width="550" height="8" as="geometry" />
        </mxCell>
        <mxCell id="mOzJsL0hazuHokyy7WO5-41" value="+ AddGestureListener(Action&lt;GameInteractable, float&gt;, List&lt;MLGestureMask&gt;, GestureState): void&#xa;// fire action on any of given gestures on given GestureState occurence&#xa;// If that action already on listening - add new target gestures with their target gestureState&#xa;&#xa;+ RemoveGestureListener(Action&lt;GameInteractable, float&gt;): void&#xa;// delete all subscription to any gesture events for given action&#xa;" style="text;strokeColor=none;align=left;verticalAlign=top;spacingLeft=4;spacingRight=4;overflow=hidden;rotatable=0;points=[[0,0.5],[1,0.5]];portConstraint=eastwest;" vertex="1" parent="mOzJsL0hazuHokyy7WO5-38">
          <mxGeometry y="58" width="550" height="102" as="geometry" />
        </mxCell>
        <mxCell id="mOzJsL0hazuHokyy7WO5-42" value="MLHandWristTiltProvider +" style="swimlane;fontStyle=1;align=center;verticalAlign=top;childLayout=stackLayout;horizontal=1;startSize=26;horizontalStack=0;resizeParent=1;resizeParentMax=0;resizeLast=0;collapsible=1;marginBottom=0;strokeWidth=2;swimlaneFillColor=#FFFFFF;fillColor=#D9F0FF;perimeterSpacing=0;strokeColor=#D1044F;" vertex="1" parent="1">
          <mxGeometry x="-300" y="-480" width="500" height="160" as="geometry">
            <mxRectangle x="-1210" y="2030" width="100" height="26" as="alternateBounds" />
          </mxGeometry>
        </mxCell>
        <mxCell id="mOzJsL0hazuHokyy7WO5-43" value="//" style="text;strokeColor=none;align=left;verticalAlign=top;spacingLeft=4;spacingRight=4;overflow=hidden;rotatable=0;points=[[0,0.5],[1,0.5]];portConstraint=eastwest;" vertex="1" parent="mOzJsL0hazuHokyy7WO5-42">
          <mxGeometry y="26" width="500" height="24" as="geometry" />
        </mxCell>
        <mxCell id="mOzJsL0hazuHokyy7WO5-44" value="" style="line;strokeWidth=1;fillColor=none;align=left;verticalAlign=middle;spacingTop=-1;spacingLeft=3;spacingRight=3;rotatable=0;labelPosition=right;points=[];portConstraint=eastwest;" vertex="1" parent="mOzJsL0hazuHokyy7WO5-42">
          <mxGeometry y="50" width="500" height="8" as="geometry" />
        </mxCell>
        <mxCell id="mOzJsL0hazuHokyy7WO5-45" value="+ AddGestureListener(Action&lt;GameInteractable&gt;, WristState): void&#xa;// fire action on any of given gestures on given GestureState occurence&#xa;// If that action already on listening - add new target gestures with their target gestureState&#xa;&#xa;+ RemoveGestureListener(Action&lt;GameInteractable&gt;): void&#xa;// delete all subscription to any gesture events for given action&#xa;" style="text;strokeColor=none;align=left;verticalAlign=top;spacingLeft=4;spacingRight=4;overflow=hidden;rotatable=0;points=[[0,0.5],[1,0.5]];portConstraint=eastwest;" vertex="1" parent="mOzJsL0hazuHokyy7WO5-42">
          <mxGeometry y="58" width="500" height="102" as="geometry" />
        </mxCell>
        <mxCell id="mOzJsL0hazuHokyy7WO5-46" value="enum WristState" style="swimlane;fontStyle=0;childLayout=stackLayout;horizontal=1;startSize=26;fillColor=none;horizontalStack=0;resizeParent=1;resizeParentMax=0;resizeLast=0;collapsible=1;marginBottom=0;strokeColor=#000000;strokeWidth=1;" vertex="1" parent="1">
          <mxGeometry x="-150" y="-620" width="140" height="80" as="geometry" />
        </mxCell>
        <mxCell id="mOzJsL0hazuHokyy7WO5-48" value="TiltUp,&#xa;TiltDown,&#xa;Idle" style="text;strokeColor=none;fillColor=none;align=left;verticalAlign=top;spacingLeft=4;spacingRight=4;overflow=hidden;rotatable=0;points=[[0,0.5],[1,0.5]];portConstraint=eastwest;" vertex="1" parent="mOzJsL0hazuHokyy7WO5-46">
          <mxGeometry y="26" width="140" height="54" as="geometry" />
        </mxCell>
        <mxCell id="WcyDqT5AvZ4gXT0a9OJa-1" value="SpherecastSelector +" style="swimlane;fontStyle=1;align=center;verticalAlign=top;childLayout=stackLayout;horizontal=1;startSize=26;horizontalStack=0;resizeParent=1;resizeParentMax=0;resizeLast=0;collapsible=1;marginBottom=0;strokeWidth=1;swimlaneFillColor=#ffffff;fillColor=#e1d5e7;strokeColor=#9673a6;" vertex="1" parent="1">
          <mxGeometry x="970" y="147" width="390" height="200" as="geometry">
            <mxRectangle x="-1210" y="2030" width="100" height="26" as="alternateBounds" />
          </mxGeometry>
        </mxCell>
        <mxCell id="WcyDqT5AvZ4gXT0a9OJa-2" value="* director: Transform &#xa;* castSource: Transform&#xa;* radius: float&#xa;* maxDistance: float&#xa;- ignoredLayers: LayerMask&#xa;+ spherecastHitInfo: Action&lt;RaycastHit[]&gt;" style="text;strokeColor=none;align=left;verticalAlign=top;spacingLeft=4;spacingRight=4;overflow=hidden;rotatable=0;points=[[0,0.5],[1,0.5]];portConstraint=eastwest;" vertex="1" parent="WcyDqT5AvZ4gXT0a9OJa-1">
          <mxGeometry y="26" width="390" height="104" as="geometry" />
        </mxCell>
        <mxCell id="WcyDqT5AvZ4gXT0a9OJa-3" value="" style="line;strokeWidth=1;fillColor=none;align=left;verticalAlign=middle;spacingTop=-1;spacingLeft=3;spacingRight=3;rotatable=0;labelPosition=right;points=[];portConstraint=eastwest;" vertex="1" parent="WcyDqT5AvZ4gXT0a9OJa-1">
          <mxGeometry y="130" width="390" height="8" as="geometry" />
        </mxCell>
        <mxCell id="WcyDqT5AvZ4gXT0a9OJa-4" value="# GetInteractables(): void&#xa;+ SortInteractables(List&lt;GameInteractable&gt;): List&lt;GameInteractable&gt;&#xa;- Comapre(GameInteractable, GameInteractable): int" style="text;strokeColor=none;align=left;verticalAlign=top;spacingLeft=4;spacingRight=4;overflow=hidden;rotatable=0;points=[[0,0.5],[1,0.5]];portConstraint=eastwest;fontStyle=0" vertex="1" parent="WcyDqT5AvZ4gXT0a9OJa-1">
          <mxGeometry y="138" width="390" height="62" as="geometry" />
        </mxCell>
        <mxCell id="WcyDqT5AvZ4gXT0a9OJa-5" value="RaycastSelector +" style="swimlane;fontStyle=1;align=center;verticalAlign=top;childLayout=stackLayout;horizontal=1;startSize=26;horizontalStack=0;resizeParent=1;resizeParentMax=0;resizeLast=0;collapsible=1;marginBottom=0;strokeWidth=1;swimlaneFillColor=#ffffff;fillColor=#e1d5e7;strokeColor=#9673a6;" vertex="1" parent="1">
          <mxGeometry x="970" y="-95" width="380" height="190" as="geometry">
            <mxRectangle x="-1210" y="2030" width="100" height="26" as="alternateBounds" />
          </mxGeometry>
        </mxCell>
        <mxCell id="WcyDqT5AvZ4gXT0a9OJa-6" value="* director: Transform &#xa;* castSource: Transform&#xa;* maxDistance: float&#xa;- ignoredLayers: LayerMask&#xa;+ raycastHitInfo: Action&lt;RaycastHit[]&gt;" style="text;strokeColor=none;align=left;verticalAlign=top;spacingLeft=4;spacingRight=4;overflow=hidden;rotatable=0;points=[[0,0.5],[1,0.5]];portConstraint=eastwest;" vertex="1" parent="WcyDqT5AvZ4gXT0a9OJa-5">
          <mxGeometry y="26" width="380" height="94" as="geometry" />
        </mxCell>
        <mxCell id="WcyDqT5AvZ4gXT0a9OJa-7" value="" style="line;strokeWidth=1;fillColor=none;align=left;verticalAlign=middle;spacingTop=-1;spacingLeft=3;spacingRight=3;rotatable=0;labelPosition=right;points=[];portConstraint=eastwest;" vertex="1" parent="WcyDqT5AvZ4gXT0a9OJa-5">
          <mxGeometry y="120" width="380" height="8" as="geometry" />
        </mxCell>
        <mxCell id="WcyDqT5AvZ4gXT0a9OJa-8" value="# GetInteractables(): void&#xa;+ SortInteractables(List&lt;GameInteractable&gt;): List&lt;GameInteractable&gt;&#xa;- Comapre(GameInteractable, GameInteractable): int" style="text;strokeColor=none;align=left;verticalAlign=top;spacingLeft=4;spacingRight=4;overflow=hidden;rotatable=0;points=[[0,0.5],[1,0.5]];portConstraint=eastwest;" vertex="1" parent="WcyDqT5AvZ4gXT0a9OJa-5">
          <mxGeometry y="128" width="380" height="62" as="geometry" />
        </mxCell>
        <mxCell id="WcyDqT5AvZ4gXT0a9OJa-21" value="На устройство системы Selector - ов смотри сюда:&lt;br&gt;https://drive.google.com/file/d/1lsO_GHqIjDzBl5lddKW1vuFHeGU6Kvwp/view?usp=sharing&lt;br&gt;" style="rounded=0;whiteSpace=wrap;html=1;strokeWidth=0;fillColor=#fff2cc;strokeColor=#d6b656;" vertex="1" parent="1">
          <mxGeometry x="1400" y="-77" width="460" height="180" as="geometry" />
        </mxCell>
        <mxCell id="WcyDqT5AvZ4gXT0a9OJa-22" style="edgeStyle=orthogonalEdgeStyle;rounded=0;orthogonalLoop=1;jettySize=auto;html=1;endArrow=none;endFill=0;" edge="1" parent="1" source="SDnSSGppthDiUH64vAvd-15" target="WcyDqT5AvZ4gXT0a9OJa-1">
          <mxGeometry relative="1" as="geometry" />
        </mxCell>
        <mxCell id="WcyDqT5AvZ4gXT0a9OJa-23" value="AsteroidFieldGenerator" style="swimlane;fontStyle=1;align=center;verticalAlign=top;childLayout=stackLayout;horizontal=1;startSize=26;horizontalStack=0;resizeParent=1;resizeParentMax=0;resizeLast=0;collapsible=1;marginBottom=0;strokeColor=#000000;fillColor=#FFE6CC;" vertex="1" parent="1">
          <mxGeometry x="317.5" y="-710" width="295" height="160" as="geometry" />
        </mxCell>
        <mxCell id="WcyDqT5AvZ4gXT0a9OJa-24" value="- goldNuggetPrefab: Asteroid&#xa;- lavaDropPrefab: Asteroid&#xa;- emptyStonePrefab: Asteroid&#xa;" style="text;strokeColor=none;fillColor=none;align=left;verticalAlign=top;spacingLeft=4;spacingRight=4;overflow=hidden;rotatable=0;points=[[0,0.5],[1,0.5]];portConstraint=eastwest;" vertex="1" parent="WcyDqT5AvZ4gXT0a9OJa-23">
          <mxGeometry y="26" width="295" height="54" as="geometry" />
        </mxCell>
        <mxCell id="WcyDqT5AvZ4gXT0a9OJa-25" value="" style="line;strokeWidth=1;fillColor=none;align=left;verticalAlign=middle;spacingTop=-1;spacingLeft=3;spacingRight=3;rotatable=0;labelPosition=right;points=[];portConstraint=eastwest;" vertex="1" parent="WcyDqT5AvZ4gXT0a9OJa-23">
          <mxGeometry y="80" width="295" height="8" as="geometry" />
        </mxCell>
        <mxCell id="WcyDqT5AvZ4gXT0a9OJa-26" value="- spawnGold(float, int): void&#xa;- spawnLavaDrop(float): void&#xa;- spawnEmptyStone(float): void" style="text;strokeColor=none;fillColor=none;align=left;verticalAlign=top;spacingLeft=4;spacingRight=4;overflow=hidden;rotatable=0;points=[[0,0.5],[1,0.5]];portConstraint=eastwest;" vertex="1" parent="WcyDqT5AvZ4gXT0a9OJa-23">
          <mxGeometry y="88" width="295" height="72" as="geometry" />
        </mxCell>
        <mxCell id="9LvyaydrbVtk21isoYdS-1" value="Interface &quot;WristState&quot;" style="swimlane;fontStyle=0;childLayout=stackLayout;horizontal=1;startSize=26;fillColor=none;horizontalStack=0;resizeParent=1;resizeParentMax=0;resizeLast=0;collapsible=1;marginBottom=0;strokeColor=#000000;strokeWidth=1;" vertex="1" parent="1">
          <mxGeometry x="95" y="-680" width="140" height="80" as="geometry" />
        </mxCell>
        <mxCell id="hHvqpcdq9VW6ZrcVUQQR-1" value="HandWristTiltControllsDescriptor" style="swimlane;fontStyle=1;align=center;verticalAlign=top;childLayout=stackLayout;horizontal=1;startSize=26;horizontalStack=0;resizeParent=1;resizeParentMax=0;resizeLast=0;collapsible=1;marginBottom=0;fillColor=#CCE5FF;" vertex="1" parent="1">
          <mxGeometry x="650" y="-208" width="300" height="86" as="geometry" />
        </mxCell>
        <mxCell id="hHvqpcdq9VW6ZrcVUQQR-2" value="+ field: type" style="text;strokeColor=none;fillColor=none;align=left;verticalAlign=top;spacingLeft=4;spacingRight=4;overflow=hidden;rotatable=0;points=[[0,0.5],[1,0.5]];portConstraint=eastwest;" vertex="1" parent="hHvqpcdq9VW6ZrcVUQQR-1">
          <mxGeometry y="26" width="300" height="26" as="geometry" />
        </mxCell>
        <mxCell id="hHvqpcdq9VW6ZrcVUQQR-3" value="" style="line;strokeWidth=1;fillColor=none;align=left;verticalAlign=middle;spacingTop=-1;spacingLeft=3;spacingRight=3;rotatable=0;labelPosition=right;points=[];portConstraint=eastwest;" vertex="1" parent="hHvqpcdq9VW6ZrcVUQQR-1">
          <mxGeometry y="52" width="300" height="8" as="geometry" />
        </mxCell>
        <mxCell id="hHvqpcdq9VW6ZrcVUQQR-4" value="+ method(type): type" style="text;strokeColor=none;fillColor=none;align=left;verticalAlign=top;spacingLeft=4;spacingRight=4;overflow=hidden;rotatable=0;points=[[0,0.5],[1,0.5]];portConstraint=eastwest;" vertex="1" parent="hHvqpcdq9VW6ZrcVUQQR-1">
          <mxGeometry y="60" width="300" height="26" as="geometry" />
        </mxCell>
        <mxCell id="hHvqpcdq9VW6ZrcVUQQR-5" style="rounded=0;orthogonalLoop=1;jettySize=auto;html=1;dashed=1;endArrow=none;endFill=0;" edge="1" parent="1" source="hHvqpcdq9VW6ZrcVUQQR-2" target="mOzJsL0hazuHokyy7WO5-1">
          <mxGeometry relative="1" as="geometry" />
        </mxCell>
      </root>
    </mxGraphModel>
  </diagram>
</mxfile>
